# xmcd CD database file
#
# Track frame offsets:
#	150
#	23497
#	46117
#	73677
#	94205
#	115167
#	157962
#	192660
#
# Disc length: 3114 seconds
#
# Revision: 0
# Processed by: cddbd v1.5.2PL0 Copyright (c) Steve Scherf et al.
# Submitted via: CDex 1.51
#
DISCID=610c2808
DTITLE=Jae Sinnett - House and Sinnett
DYEAR=1994
DGENRE=Jazz
TTITLE0=House and Sinnett
TTITLE1=Sinnett-Cal
TTITLE2=Night Kiss
TTITLE3=Abdu's Fiesta
TTITLE4=Sometimes I'm Happy
TTITLE5=Steady as She Goes
TTITLE6=Wayne
TTITLE7=Workin' to Work
EXTD=YEAR: 1994
EXTT0=
EXTT1=
EXTT2=
EXTT3=
EXTT4=
EXTT5=
EXTT6=
EXTT7=
PLAYORDER=
